<?xml version="1.0" encoding="UTF-8" standalone="no"?>
<!-- Created with Inkscape (http://www.inkscape.org/) -->

<svg
   width="155.495mm"
   height="40.601002mm"
   viewBox="0 0 155.49499 40.601002"
   version="1.1"
   id="svg391"
   xml:space="preserve"
   inkscape:version="1.2.2 (732a01da63, 2022-12-09)"
   sodipodi:docname="LaReserva-logoLongWhite.svg"
   inkscape:export-filename="..\big-logo-creation.svg"
   inkscape:export-xdpi="96"
   inkscape:export-ydpi="96"
   xmlns:inkscape="http://www.inkscape.org/namespaces/inkscape"
   xmlns:sodipodi="http://sodipodi.sourceforge.net/DTD/sodipodi-0.dtd"
   xmlns="http://www.w3.org/2000/svg"
   xmlns:svg="http://www.w3.org/2000/svg"><sodipodi:namedview
     id="namedview393"
     pagecolor="#000000"
     bordercolor="#000000"
     borderopacity="0.25"
     inkscape:showpageshadow="2"
     inkscape:pageopacity="0"
     inkscape:pagecheckerboard="0"
     inkscape:deskcolor="#d1d1d1"
     inkscape:document-units="mm"
     showgrid="false"
     showguides="false"
     inkscape:zoom="1.466344"
     inkscape:cx="187.20027"
     inkscape:cy="-17.731174"
     inkscape:window-width="1920"
     inkscape:window-height="1009"
     inkscape:window-x="1912"
     inkscape:window-y="-8"
     inkscape:window-maximized="1"
     inkscape:current-layer="layer1" /><defs
     id="defs388" /><g
     inkscape:label="Capa 1"
     inkscape:groupmode="layer"
     id="layer1"
     style="display:inline"
     transform="translate(-84.986579,-60.632497)"><path
       style="display:inline;fill:#ffffff;fill-opacity:1;stroke-width:0.264583"
       d="m 193.75851,91.324551 v -0.66146 h 1.45521 1.45521 V 81.40267 72.142254 h -0.92605 -0.92604 v -0.661459 -0.661458 h 12.17084 12.17084 v 0.661458 c 0,0.48507 -0.14111,0.661459 -0.52917,0.661459 h -0.52917 v 3.307291 3.307292 h 3.47044 3.47045 l -0.17243,-0.595313 c -2.17307,-7.502787 1.62685,-15.088667 6.53166,-13.039306 3.29238,1.375642 4.96284,8.548318 3.12284,13.408954 -0.5944,1.570188 -2.44616,3.929832 -3.08399,3.929832 -0.30669,0 -0.37438,0.741532 -0.37438,4.101041 v 4.101046 h 1.71979 1.71979 v 0.66146 0.66145 h -20.37292 -20.37292 z m 13.75834,-5.953131 v -5.291666 h -1.32292 -1.32292 v -0.661459 -0.661458 l 4.56407,-0.05574 c 2.51023,-0.03065 5.18914,-0.02393 5.95312,0.01494 l 1.38907,0.07068 v -3.322235 -3.322235 h -9.39271 -9.39272 v 9.260416 9.260418 h 4.76251 4.7625 z m 3.70417,1.455209 V 82.99017 h 1.85208 1.85208 v 3.836459 3.836462 h 5.82084 5.82083 v -4.703633 c 0,-3.828931 -0.0766,-4.812981 -0.41188,-5.291666 l -0.41188,-0.588038 h -8.45166 -8.45166 v 5.291666 5.291671 h 1.19062 1.19063 z m 18.52083,-0.132292 v -3.96875 h -0.50753 c -0.27914,0 -0.69586,-0.07227 -0.92604,-0.160599 l -0.41851,-0.160599 v 4.129349 4.129353 h 0.92604 0.92604 z m 0,-5.929429 c 0,-0.35077 -0.83509,-1.98788 -1.85576,-3.638021 l -1.85575,-3.000258 0.45111,-0.33073 c 0.68857,-0.504812 0.73798,-0.465066 1.97347,1.5875 l 1.15464,1.91823 0.0751,-2.844271 0.0751,-2.844271 h 0.65251 0.65251 l 0.008,1.521354 c 0.007,1.262399 0.0584,1.431283 0.3036,0.992188 0.16256,-0.291042 0.32215,-0.56339 0.35464,-0.605219 0.0325,-0.04183 0.36197,0.06195 0.73217,0.23063 l 0.6731,0.306681 -1.03578,1.69226 -1.03577,1.69226 0.007,1.913569 0.007,1.913569 0.78233,-0.926042 c 2.84574,-3.368487 2.69309,-10.655364 -0.27948,-13.340894 -4.54511,-4.106234 -8.28518,7.199284 -4.25553,12.863675 1.0791,1.516877 2.41553,2.013592 2.41553,0.89779 z"
       id="path511"
       sodipodi:nodetypes="ccccccccccccsscccccsssssccccccccccccccssccccccccccccccccccssccccccccccsscccccccscsscccccccsscccccssscc" /><g
       aria-label="FRACCIONAMIENTO"
       transform="scale(1.2320695,0.81164253)"
       id="text618"
       style="font-size:11.0442px;fill:#ffffff;stroke-width:0.230086"><path
         d="m 104.65597,112.71066 v -0.89458 h -2.28614 v 7.35544 h 0.96084 v -3.29118 h 1.01607 v -0.88353 h -1.01607 v -2.28615 z"
         style="font-family:'Knockout HTF47-Bantamweight';-inkscape-font-specification:'Knockout HTF47-Bantamweight';fill:#ffffff"
         id="path190" /><path
         d="m 108.02446,119.20465 v -0.27611 c -0.11045,-0.18775 -0.16567,-0.41968 -0.16567,-0.751 V 116.543 c 0,-0.43073 -0.20984,-0.76205 -0.58534,-0.93876 0.3755,-0.17671 0.56325,-0.49699 0.56325,-0.93876 v -1.54619 c 0,-0.96084 -0.58534,-1.30321 -1.21486,-1.30321 h -1.49096 v 7.35544 h 0.97188 v -3.1476 h 0.43073 c 0.25402,0 0.38655,0.1988 0.38655,0.45281 v 1.75603 c 0,0.53012 0.14357,0.97189 0.49698,0.97189 z m -1.1486,-4.4729 c 0,0.30924 -0.12149,0.45281 -0.35342,0.45281 h -0.41968 v -2.4739 h 0.46386 c 0.20984,0 0.30924,0.13253 0.30924,0.41968 z"
         style="font-family:'Knockout HTF47-Bantamweight';-inkscape-font-specification:'Knockout HTF47-Bantamweight';fill:#ffffff"
         id="path192" /><path
         d="m 111.21623,119.17152 -0.98293,-7.35544 h -1.06024 l -0.98294,7.35544 h 0.88354 l 0.16566,-1.42471 h 0.8504 l 0.13253,1.42471 z m -1.2259,-2.31929 h -0.64057 l 0.35342,-3.15864 z"
         style="font-family:'Knockout HTF47-Bantamweight';-inkscape-font-specification:'Knockout HTF47-Bantamweight';fill:#ffffff"
         id="path194" /><path
         d="m 114.28651,117.80204 v -1.23695 h -0.83936 v 1.29217 c 0,0.2761 -0.15462,0.48594 -0.4749,0.48594 -0.32028,0 -0.4749,-0.20984 -0.4749,-0.48594 v -4.72692 c 0,-0.27611 0.15462,-0.48595 0.4749,-0.48595 0.32028,0 0.4749,0.20984 0.4749,0.48595 v 1.28113 h 0.83936 v -1.22591 c 0,-0.86145 -0.48595,-1.47992 -1.33635,-1.47992 -0.82832,0 -1.43575,0.64056 -1.43575,1.51305 v 4.55021 c 0,0.88354 0.60743,1.51306 1.43575,1.51306 0.8504,0 1.33635,-0.60743 1.33635,-1.47992 z"
         style="font-family:'Knockout HTF47-Bantamweight';-inkscape-font-specification:'Knockout HTF47-Bantamweight';fill:#ffffff"
         id="path196" /><path
         d="m 117.55558,117.80204 v -1.23695 h -0.83935 v 1.29217 c 0,0.2761 -0.15462,0.48594 -0.47491,0.48594 -0.32028,0 -0.4749,-0.20984 -0.4749,-0.48594 v -4.72692 c 0,-0.27611 0.15462,-0.48595 0.4749,-0.48595 0.32029,0 0.47491,0.20984 0.47491,0.48595 v 1.28113 h 0.83935 v -1.22591 c 0,-0.86145 -0.48594,-1.47992 -1.33634,-1.47992 -0.82832,0 -1.43575,0.64056 -1.43575,1.51305 v 4.55021 c 0,0.88354 0.60743,1.51306 1.43575,1.51306 0.8504,0 1.33634,-0.60743 1.33634,-1.47992 z"
         style="font-family:'Knockout HTF47-Bantamweight';-inkscape-font-specification:'Knockout HTF47-Bantamweight';fill:#ffffff"
         id="path198" /><path
         d="m 119.10177,119.17152 v -7.35544 h -0.97189 v 7.35544 z"
         style="font-family:'Knockout HTF47-Bantamweight';-inkscape-font-specification:'Knockout HTF47-Bantamweight';fill:#ffffff"
         id="path200" /><path
         d="m 122.59174,117.77995 v -4.5723 c 0,-0.87249 -0.59639,-1.50201 -1.4247,-1.50201 -0.82832,0 -1.4247,0.62952 -1.4247,1.50201 v 4.5723 c 0,0.88353 0.59638,1.50201 1.4247,1.50201 0.82831,0 1.4247,-0.61848 1.4247,-1.50201 z m -0.97189,0.0884 c 0,0.28715 -0.16566,0.4749 -0.45281,0.4749 -0.28715,0 -0.44177,-0.18775 -0.44177,-0.4749 v -4.74901 c 0,-0.2761 0.15462,-0.4749 0.44177,-0.4749 0.28715,0 0.45281,0.1988 0.45281,0.4749 z"
         style="font-family:'Knockout HTF47-Bantamweight';-inkscape-font-specification:'Knockout HTF47-Bantamweight';fill:#ffffff"
         id="path202" /><path
         d="m 126.19216,119.17152 v -7.35544 h -0.86145 v 4.63856 l -0.2761,-1.10442 -0.92772,-3.53414 h -0.90562 v 7.35544 h 0.87249 v -4.61648 l 0.29819,1.09338 1.03816,3.5231 z"
         style="font-family:'Knockout HTF47-Bantamweight';-inkscape-font-specification:'Knockout HTF47-Bantamweight';fill:#ffffff"
         id="path204" /><path
         d="m 129.59378,119.17152 -0.98294,-7.35544 h -1.06024 l -0.98293,7.35544 h 0.88353 l 0.16566,-1.42471 h 0.85041 l 0.13253,1.42471 z m -1.22591,-2.31929 h -0.64056 l 0.35341,-3.15864 z"
         style="font-family:'Knockout HTF47-Bantamweight';-inkscape-font-specification:'Knockout HTF47-Bantamweight';fill:#ffffff"
         id="path206" /><path
         d="m 133.95623,119.17152 v -7.35544 h -1.29217 l -0.50803,3.72189 -0.16567,1.46888 -0.16566,-1.46888 -0.51908,-3.72189 h -1.31426 v 7.35544 h 0.85041 v -5.58837 l 0.15462,1.47992 0.55221,4.10845 h 0.73996 l 0.58534,-4.10845 0.16566,-1.47992 v 5.58837 z"
         style="font-family:'Knockout HTF47-Bantamweight';-inkscape-font-specification:'Knockout HTF47-Bantamweight';fill:#ffffff"
         id="path208" /><path
         d="m 135.62391,119.17152 v -7.35544 h -0.97188 v 7.35544 z"
         style="font-family:'Knockout HTF47-Bantamweight';-inkscape-font-specification:'Knockout HTF47-Bantamweight';fill:#ffffff"
         id="path210" /><path
         d="m 138.68316,119.17152 v -0.91667 h -1.39157 v -2.44077 h 0.97189 v -0.87249 h -0.97189 v -2.21989 h 1.39157 v -0.90562 h -2.35241 v 7.35544 z"
         style="font-family:'Knockout HTF47-Bantamweight';-inkscape-font-specification:'Knockout HTF47-Bantamweight';fill:#ffffff"
         id="path212" /><path
         d="m 142.17312,119.17152 v -7.35544 h -0.86145 v 4.63856 l -0.2761,-1.10442 -0.92772,-3.53414 h -0.90562 v 7.35544 h 0.87249 v -4.61648 l 0.29819,1.09338 1.03816,3.5231 z"
         style="font-family:'Knockout HTF47-Bantamweight';-inkscape-font-specification:'Knockout HTF47-Bantamweight';fill:#ffffff"
         id="path214" /><path
         d="m 145.34281,112.75484 v -0.93876 h -2.76105 v 0.93876 h 0.91667 v 6.41668 h 0.96085 v -6.41668 z"
         style="font-family:'Knockout HTF47-Bantamweight';-inkscape-font-specification:'Knockout HTF47-Bantamweight';fill:#ffffff"
         id="path216" /><path
         d="m 148.50144,117.77995 v -4.5723 c 0,-0.87249 -0.59639,-1.50201 -1.4247,-1.50201 -0.82832,0 -1.4247,0.62952 -1.4247,1.50201 v 4.5723 c 0,0.88353 0.59638,1.50201 1.4247,1.50201 0.82831,0 1.4247,-0.61848 1.4247,-1.50201 z m -0.97189,0.0884 c 0,0.28715 -0.16566,0.4749 -0.45281,0.4749 -0.28715,0 -0.44177,-0.18775 -0.44177,-0.4749 v -4.74901 c 0,-0.2761 0.15462,-0.4749 0.44177,-0.4749 0.28715,0 0.45281,0.1988 0.45281,0.4749 z"
         style="font-family:'Knockout HTF47-Bantamweight';-inkscape-font-specification:'Knockout HTF47-Bantamweight';fill:#ffffff"
         id="path218" /></g><g
       aria-label="lA RESERVA"
       id="text618-5"
       style="font-size:27.6491px;font-family:KAVO;-inkscape-font-specification:KAVO;fill:#ffffff;stroke-width:0.576023"><path
         d="M 96.671268,84.510189 V 67.644238 H 92.523903 V 87.55159 h 9.400697 v -3.041401 z"
         style="font-weight:bold;font-family:Eunomia;-inkscape-font-specification:'Eunomia Bold';fill:#ffffff"
         id="path171" /><path
         d="m 103.50059,87.55159 h 4.03676 v -4.727996 c 0,-1.935437 0.13825,-3.732628 0.44239,-5.723364 l 0.88477,-5.668065 c 0.0277,-0.165895 0.083,-0.331789 0.24884,-0.331789 0.1659,0 0.2212,0.165894 0.24884,0.331789 l 0.82948,5.391574 c 0.33179,2.239577 0.49768,4.064418 0.49768,5.999855 v 4.727996 h 4.14737 v -4.479154 c 0,-1.880139 -0.1659,-4.175014 -0.49769,-5.861609 l -1.27186,-6.663433 c -0.41473,-2.239577 -1.38245,-3.041401 -3.06905,-3.041401 h -1.65894 c -1.65895,0 -2.57137,0.774175 -3.01375,2.958454 l -1.27186,6.469889 c -0.35944,1.852489 -0.55298,4.009119 -0.55298,6.1381 z"
         style="font-weight:bold;font-family:Eunomia;-inkscape-font-specification:'Eunomia Bold';fill:#ffffff"
         id="path173" /><path
         d="m 127.44469,87.55159 h 2.62667 l -3.78793,-6.248696 c -0.71888,-1.188912 -0.88477,-1.575999 -0.88477,-1.963087 0,-0.359438 0.13824,-0.635929 0.71887,-1.21656 l 0.88478,-0.91242 c 1.68659,-1.741893 2.12898,-2.709612 2.12898,-5.22568 0,-2.820208 -0.94007,-4.340909 -3.92618,-4.340909 h -3.23494 v 1.990736 h 2.70961 c 1.5207,0 2.23958,0.442385 2.23958,2.792559 0,1.493051 -0.41474,2.43312 -1.29951,3.317892 l -1.27186,1.271858 c -0.91242,0.91242 -1.18891,1.54835 -1.18891,2.377823 0,0.635929 0.1659,1.21656 0.71888,2.156629 z"
         style="font-family:Eunomia;-inkscape-font-specification:Eunomia;fill:#ffffff"
         id="path175" /><path
         d="m 134.52284,85.560855 v -9.732483 h 4.14737 v -1.990735 h -4.14737 v -4.202663 h 4.97684 v -1.990736 h -7.18877 V 87.55159 h 7.46526 v -1.990735 z"
         style="font-family:Eunomia;-inkscape-font-specification:Eunomia;fill:#ffffff"
         id="path177" /><path
         d="m 142.07106,87.55159 h 2.51607 c 3.59438,0 4.6174,-1.299508 4.6174,-4.727996 0,-2.543717 -0.35944,-3.760278 -2.65432,-6.276346 -1.3548,-1.493051 -1.99073,-2.101331 -1.99073,-4.423855 0,-1.990736 0.52533,-2.488419 2.21193,-2.488419 h 2.37782 v -1.990736 h -2.40547 c -2.95846,0 -4.39621,0.801824 -4.39621,4.479155 0,2.958453 0.69123,3.815575 2.40547,5.751012 1.99074,2.239577 2.23958,3.207296 2.23958,5.032136 0,2.267226 -0.60828,2.654314 -2.18428,2.654314 h -2.73726 z"
         style="font-family:Eunomia;-inkscape-font-specification:Eunomia;fill:#ffffff"
         id="path179" /><path
         d="m 154.54082,85.560855 v -9.732483 h 4.14736 v -1.990735 h -4.14736 v -4.202663 h 4.97683 v -1.990736 h -7.18876 V 87.55159 h 7.46526 v -1.990735 z"
         style="font-family:Eunomia;-inkscape-font-specification:Eunomia;fill:#ffffff"
         id="path181" /><path
         d="m 167.34236,87.55159 h 2.62667 l -3.78793,-6.248696 c -0.71888,-1.188912 -0.88477,-1.575999 -0.88477,-1.963087 0,-0.359438 0.13825,-0.635929 0.71888,-1.21656 l 0.88477,-0.91242 c 1.68659,-1.741893 2.12898,-2.709612 2.12898,-5.22568 0,-2.820208 -0.94007,-4.340909 -3.92617,-4.340909 h -3.23495 v 1.990736 h 2.70961 c 1.5207,0 2.23958,0.442385 2.23958,2.792559 0,1.493051 -0.41474,2.43312 -1.29951,3.317892 l -1.27186,1.271858 c -0.91242,0.91242 -1.18891,1.54835 -1.18891,2.377823 0,0.635929 0.1659,1.21656 0.71888,2.156629 z"
         style="font-family:Eunomia;-inkscape-font-specification:Eunomia;fill:#ffffff"
         id="path183" /><path
         d="m 180.44802,67.644238 h -2.15663 v 5.419224 c 0,1.105964 -0.1106,2.903155 -0.55299,5.446872 l -1.07831,6.16575 c -0.13825,0.829473 -0.24884,0.967718 -0.49768,0.967718 -0.24885,0 -0.35944,-0.138245 -0.49769,-0.967718 l -1.07831,-6.16575 c -0.44239,-2.543717 -0.55298,-4.340908 -0.55298,-5.446872 v -5.419224 h -2.21193 v 4.727996 c 0,1.575999 0.11059,3.760278 0.66358,6.691082 l 1.13361,6.110451 c 0.33179,1.741894 0.96772,2.516068 2.10133,2.516068 h 0.82947 c 1.13362,0 1.76955,-0.774174 2.10133,-2.516068 l 1.13362,-6.110451 c 0.55298,-2.930804 0.66358,-5.115083 0.66358,-6.691082 z"
         style="font-family:Eunomia;-inkscape-font-specification:Eunomia;fill:#ffffff"
         id="path185" /><path
         d="m 183.07467,87.55159 h 2.15663 v -5.419224 c 0,-1.105963 0.1106,-2.903155 0.55298,-5.446872 l 1.07832,-6.165749 c 0.13824,-0.829473 0.24884,-0.967719 0.49768,-0.967719 0.24884,0 0.35944,0.138246 0.49769,0.967719 l 1.07831,6.165749 c 0.44239,2.543717 0.55298,4.340909 0.55298,5.446872 v 5.419224 h 2.21193 v -4.727996 c 0,-1.575999 -0.1106,-3.760278 -0.66358,-6.691082 L 189.904,70.022061 c -0.33179,-1.741893 -0.96772,-2.516068 -2.10133,-2.516068 h -0.82948 c -1.13361,0 -1.76954,0.774175 -2.10133,2.516068 l -1.13361,6.110451 c -0.55298,2.930804 -0.66358,5.115083 -0.66358,6.691082 z"
         style="font-family:Eunomia;-inkscape-font-specification:Eunomia;fill:#ffffff"
         id="path187" /></g><path
       style="display:inline;fill:#ffffff;stroke-width:0.264583"
       d="m 193.75851,94.499553 v -0.661462 h 20.37292 20.37292 v 0.661462 0.66145 h -20.37292 -20.37292 z m 5.82084,-9.392716 V 82.99017 h 1.5875 1.5875 v 2.116667 2.116667 h -1.5875 -1.5875 z m 0,-9.657292 v -1.719791 h 7.54062 7.54063 v 1.719791 1.719792 h -7.54063 -7.54062 z m 17.72708,9.657292 V 82.99017 h 3.70417 3.70417 v 2.116667 2.116667 h -3.70417 -3.70417 z"
       id="path1205"
       inkscape:label="path1205"
       sodipodi:nodetypes="cccccccccccccccccccccccccccccccccccc" /></g></svg>
