<?xml version="1.0" encoding="UTF-8" standalone="no"?>
<!-- Created with Inkscape (http://www.inkscape.org/) -->

<svg
   width="41.526146mm"
   height="30.378447mm"
   viewBox="0 0 41.526146 30.378447"
   version="1.1"
   id="svg391"
   xml:space="preserve"
   inkscape:export-filename="bitmap.svg"
   inkscape:export-xdpi="96"
   inkscape:export-ydpi="96"
   sodipodi:docname="LaReserva-logoSmallWhite.svg"
   inkscape:version="1.2.2 (732a01da63, 2022-12-09)"
   xmlns:inkscape="http://www.inkscape.org/namespaces/inkscape"
   xmlns:sodipodi="http://sodipodi.sourceforge.net/DTD/sodipodi-0.dtd"
   xmlns="http://www.w3.org/2000/svg"
   xmlns:svg="http://www.w3.org/2000/svg"><sodipodi:namedview
     id="namedview393"
     pagecolor="#000000"
     bordercolor="#000000"
     borderopacity="0.25"
     inkscape:showpageshadow="2"
     inkscape:pageopacity="0"
     inkscape:pagecheckerboard="0"
     inkscape:deskcolor="#d1d1d1"
     inkscape:document-units="mm"
     showgrid="false"
     showguides="true"
     inkscape:zoom="7.1679795"
     inkscape:cx="68.568834"
     inkscape:cy="59.151955"
     inkscape:window-width="1920"
     inkscape:window-height="1009"
     inkscape:window-x="1912"
     inkscape:window-y="-8"
     inkscape:window-maximized="1"
     inkscape:current-layer="layer1" /><defs
     id="defs388" /><g
     inkscape:label="Capa 1"
     inkscape:groupmode="layer"
     id="layer1"
     transform="translate(-85.038545,-60.185937)"><path
       style="fill:#ffffff;stroke-width:0.264583"
       d="m 85.038545,89.902925 v -0.661459 h 20.372915 20.37292 v 0.661459 0.661458 H 105.41146 85.038545 Z m 0,-3.175 v -0.661459 h 1.455209 1.455208 V 76.806049 67.545633 H 87.02292 86.096879 v -0.661459 -0.661458 h 12.170833 12.170838 v 0.661458 c 0,0.48507 -0.14111,0.661459 -0.52917,0.661459 h -0.52917 v 3.307291 3.307292 h 3.47044 3.47045 l -0.17243,-0.595313 c -2.17307,-7.502787 1.62685,-15.088667 6.53166,-13.039306 3.29238,1.375642 4.96284,8.548318 3.12284,13.408954 -0.5944,1.570188 -2.44616,3.929832 -3.08399,3.929832 -0.30669,0 -0.37438,0.741532 -0.37438,4.101041 v 4.101042 h 1.71979 1.71979 v 0.661459 0.661458 H 105.41146 85.038545 Z m 13.758334,-5.953126 v -5.291666 h -1.322917 -1.322917 v -0.661459 -0.661458 l 4.564065,-0.05574 c 2.51023,-0.03065 5.18914,-0.02393 5.95312,0.01494 l 1.38907,0.07068 v -3.322235 -3.322235 h -9.392713 -9.392708 v 9.260416 9.260417 h 4.7625 4.7625 z m -7.9375,-0.264583 v -2.116667 h 1.5875 1.5875 v 2.116667 2.116667 h -1.5875 -1.5875 z m 0,-9.657292 v -1.719791 h 7.540625 7.540626 v 1.719791 1.719792 h -7.540626 -7.540625 z m 11.641671,11.377084 v -3.836459 h 1.85208 1.85208 v 3.836459 3.836458 h 5.82084 5.82083 v -4.703629 c 0,-3.828931 -0.0766,-4.812981 -0.41188,-5.291666 l -0.41188,-0.588038 h -8.45166 -8.45166 v 5.291666 5.291667 h 1.19062 1.19063 z m 6.08541,-1.719792 v -2.116667 h 3.70417 3.70417 v 2.116667 2.116667 h -3.70417 -3.70417 z m 12.43542,1.5875 v -3.96875 h -0.50753 c -0.27914,0 -0.69586,-0.07227 -0.92604,-0.160599 l -0.41851,-0.160599 v 4.129349 4.129349 h 0.92604 0.92604 z m 0,-5.929429 c 0,-0.35077 -0.83509,-1.98788 -1.85576,-3.638021 l -1.85575,-3.000258 0.45111,-0.33073 c 0.68857,-0.504812 0.73798,-0.465066 1.97347,1.5875 l 1.15464,1.91823 0.0751,-2.844271 0.0751,-2.844271 h 0.65251 0.65251 l 0.008,1.521354 c 0.007,1.262399 0.0584,1.431283 0.3036,0.992188 0.16256,-0.291042 0.32215,-0.56339 0.35464,-0.605219 0.0325,-0.04183 0.36197,0.06195 0.73217,0.23063 l 0.6731,0.306681 -1.03578,1.69226 -1.03577,1.69226 0.007,1.913569 0.007,1.913569 0.78233,-0.926042 c 2.84574,-3.368487 2.69309,-10.655364 -0.27948,-13.340894 -4.54511,-4.106234 -8.28518,7.199284 -4.25553,12.863675 1.0791,1.516877 2.41553,2.013592 2.41553,0.89779 z"
       id="path511" /></g></svg>
