<?xml version="1.0" encoding="UTF-8" standalone="no"?>
<!-- Created with Inkscape (http://www.inkscape.org/) -->

<svg
   width="52.494999mm"
   height="48.601002mm"
   viewBox="0 0 52.494999 48.601002"
   version="1.1"
   id="svg391"
   xml:space="preserve"
   inkscape:version="1.2.2 (732a01da63, 2022-12-09)"
   sodipodi:docname="LaReserva-logoSquareWhite.svg"
   inkscape:export-filename="..\big-logo-creation.svg"
   inkscape:export-xdpi="96"
   inkscape:export-ydpi="96"
   xmlns:inkscape="http://www.inkscape.org/namespaces/inkscape"
   xmlns:sodipodi="http://sodipodi.sourceforge.net/DTD/sodipodi-0.dtd"
   xmlns="http://www.w3.org/2000/svg"
   xmlns:svg="http://www.w3.org/2000/svg"><sodipodi:namedview
     id="namedview393"
     pagecolor="#000000"
     bordercolor="#000000"
     borderopacity="0.25"
     inkscape:showpageshadow="2"
     inkscape:pageopacity="0"
     inkscape:pagecheckerboard="0"
     inkscape:deskcolor="#d1d1d1"
     inkscape:document-units="mm"
     showgrid="false"
     showguides="false"
     inkscape:zoom="1.466344"
     inkscape:cx="-21.822983"
     inkscape:cy="-16.708221"
     inkscape:window-width="1445"
     inkscape:window-height="1032"
     inkscape:window-x="2256"
     inkscape:window-y="85"
     inkscape:window-maximized="0"
     inkscape:current-layer="layer1" /><defs
     id="defs388" /><g
     inkscape:label="Capa 1"
     inkscape:groupmode="layer"
     id="layer1"
     style="display:inline"
     transform="translate(-84.986579,-60.632497)"><path
       style="display:inline;fill:#ffffff;fill-opacity:1;stroke-width:0.264583"
       d="m 90.909173,88.798426 v -0.66146 h 1.45521 1.45521 v -9.260421 -9.260416 h -0.92605 -0.92604 V 68.95467 68.293212 h 12.170837 12.17084 v 0.661458 c 0,0.48507 -0.14111,0.661459 -0.52917,0.661459 h -0.52917 v 3.307291 3.307292 h 3.47044 3.47045 l -0.17243,-0.595313 c -2.17307,-7.502787 1.62685,-15.088667 6.53166,-13.039306 3.29238,1.375642 4.96284,8.548318 3.12284,13.408954 -0.5944,1.570188 -2.44616,3.929832 -3.08399,3.929832 -0.30669,0 -0.37438,0.741532 -0.37438,4.101041 v 4.101046 h 1.71979 1.71979 v 0.66146 0.66145 H 111.28209 90.909173 Z m 13.758337,-5.953131 v -5.291666 h -1.32292 -1.32292 V 76.89217 76.230712 l 4.56407,-0.05574 c 2.51023,-0.03065 5.18914,-0.02393 5.95312,0.01494 l 1.38907,0.07068 v -3.322235 -3.322235 h -9.39271 -9.392717 v 9.260416 9.260418 h 4.762507 4.7625 z m 3.70417,1.455209 v -3.836459 h 1.85208 1.85208 v 3.836459 3.836462 h 5.82084 5.82083 v -4.703633 c 0,-3.828931 -0.0766,-4.812981 -0.41188,-5.291666 l -0.41188,-0.588038 h -8.45166 -8.45166 v 5.291666 5.291671 h 1.19062 1.19063 z m 18.52083,-0.132292 v -3.96875 h -0.50753 c -0.27914,0 -0.69586,-0.07227 -0.92604,-0.160599 l -0.41851,-0.160599 v 4.129349 4.129353 h 0.92604 0.92604 z m 0,-5.929429 c 0,-0.35077 -0.83509,-1.98788 -1.85576,-3.638021 l -1.85575,-3.000258 0.45111,-0.33073 c 0.68857,-0.504812 0.73798,-0.465066 1.97347,1.5875 l 1.15464,1.91823 0.0751,-2.844271 0.0751,-2.844271 h 0.65251 0.65251 l 0.008,1.521354 c 0.007,1.262399 0.0584,1.431283 0.3036,0.992188 0.16256,-0.291042 0.32215,-0.56339 0.35464,-0.605219 0.0325,-0.04183 0.36197,0.06195 0.73217,0.23063 l 0.6731,0.306681 -1.03578,1.69226 -1.03577,1.69226 0.007,1.913569 0.007,1.913569 0.78233,-0.926042 c 2.84574,-3.368487 2.69309,-10.655364 -0.27948,-13.340894 -4.54511,-4.106234 -8.28518,7.199284 -4.25553,12.863675 1.0791,1.516877 2.41553,2.013592 2.41553,0.89779 z"
       id="path511"
       sodipodi:nodetypes="ccccccccccccsscccccsssssccccccccccccccssccccccccccccccccccssccccccccccsscccccccscsscccccccsscccccssscc" /><g
       aria-label="FRACCIONAMIENTO"
       transform="scale(1.2320695,0.81164253)"
       id="text618"
       style="font-size:5.92521px;fill:#ffffff;stroke-width:0.123442"><path
         d="m 84.19366,129.36287 v -0.47994 h -1.226519 v 3.94619 h 0.515493 v -1.76572 h 0.54512 v -0.47401 h -0.54512 v -1.22652 z"
         style="font-family:'Knockout HTF47-Bantamweight';-inkscape-font-specification:'Knockout HTF47-Bantamweight';fill:#ffffff"
         id="path190" /><path
         d="m 86.000849,132.84689 v -0.14813 c -0.05925,-0.10073 -0.08888,-0.22516 -0.08888,-0.40291 v -0.87693 c 0,-0.23109 -0.112579,-0.40884 -0.314037,-0.50365 0.201458,-0.0948 0.302186,-0.26663 0.302186,-0.50364 v -0.82953 c 0,-0.51549 -0.314036,-0.69917 -0.651773,-0.69917 h -0.799903 v 3.94619 h 0.521418 v -1.68869 h 0.231083 c 0.13628,0 0.207383,0.10666 0.207383,0.24294 v 0.9421 c 0,0.28441 0.07703,0.52142 0.266634,0.52142 z m -0.616222,-2.39971 c 0,0.16591 -0.06518,0.24294 -0.189607,0.24294 h -0.225158 v -1.32725 h 0.248859 c 0.112579,0 0.165906,0.0711 0.165906,0.22516 z"
         style="font-family:'Knockout HTF47-Bantamweight';-inkscape-font-specification:'Knockout HTF47-Bantamweight';fill:#ffffff"
         id="path192" /><path
         d="m 87.713236,132.82912 -0.527343,-3.94619 h -0.568821 l -0.527343,3.94619 h 0.474017 l 0.08888,-0.76436 h 0.456241 l 0.0711,0.76436 z m -0.657698,-1.2443 h -0.343662 l 0.189606,-1.69461 z"
         style="font-family:'Knockout HTF47-Bantamweight';-inkscape-font-specification:'Knockout HTF47-Bantamweight';fill:#ffffff"
         id="path194" /><path
         d="m 89.360437,132.09439 v -0.66362 h -0.450315 v 0.69325 c 0,0.14813 -0.08295,0.26071 -0.254784,0.26071 -0.171832,0 -0.254785,-0.11258 -0.254785,-0.26071 v -2.53599 c 0,-0.14813 0.08295,-0.26071 0.254785,-0.26071 0.171831,0 0.254784,0.11258 0.254784,0.26071 v 0.68732 h 0.450315 v -0.6577 c 0,-0.46216 -0.260709,-0.79398 -0.71695,-0.79398 -0.444391,0 -0.770277,0.34367 -0.770277,0.81176 v 2.44119 c 0,0.47401 0.325886,0.81175 0.770277,0.81175 0.456241,0 0.71695,-0.32589 0.71695,-0.79398 z"
         style="font-family:'Knockout HTF47-Bantamweight';-inkscape-font-specification:'Knockout HTF47-Bantamweight';fill:#ffffff"
         id="path196" /><path
         d="m 91.114297,132.09439 v -0.66362 h -0.450316 v 0.69325 c 0,0.14813 -0.08295,0.26071 -0.254784,0.26071 -0.171831,0 -0.254784,-0.11258 -0.254784,-0.26071 v -2.53599 c 0,-0.14813 0.08295,-0.26071 0.254784,-0.26071 0.171831,0 0.254784,0.11258 0.254784,0.26071 v 0.68732 h 0.450316 v -0.6577 c 0,-0.46216 -0.260709,-0.79398 -0.71695,-0.79398 -0.444391,0 -0.770278,0.34367 -0.770278,0.81176 v 2.44119 c 0,0.47401 0.325887,0.81175 0.770278,0.81175 0.456241,0 0.71695,-0.32589 0.71695,-0.79398 z"
         style="font-family:'Knockout HTF47-Bantamweight';-inkscape-font-specification:'Knockout HTF47-Bantamweight';fill:#ffffff"
         id="path198" /><path
         d="m 91.943824,132.82912 v -3.94619 h -0.521419 v 3.94619 z"
         style="font-family:'Knockout HTF47-Bantamweight';-inkscape-font-specification:'Knockout HTF47-Bantamweight';fill:#ffffff"
         id="path200" /><path
         d="m 93.816192,132.08254 v -2.45304 c 0,-0.46809 -0.319961,-0.80583 -0.764352,-0.80583 -0.444391,0 -0.764352,0.33774 -0.764352,0.80583 v 2.45304 c 0,0.47402 0.319961,0.80583 0.764352,0.80583 0.444391,0 0.764352,-0.33181 0.764352,-0.80583 z m -0.521418,0.0474 c 0,0.15406 -0.08888,0.25479 -0.242934,0.25479 -0.154056,0 -0.237008,-0.10073 -0.237008,-0.25479 v -2.54784 c 0,-0.14813 0.08295,-0.25478 0.237008,-0.25478 0.154055,0 0.242934,0.10665 0.242934,0.25478 z"
         style="font-family:'Knockout HTF47-Bantamweight';-inkscape-font-specification:'Knockout HTF47-Bantamweight';fill:#ffffff"
         id="path202" /><path
         d="m 95.747816,132.82912 v -3.94619 H 95.28565 v 2.48859 l -0.148131,-0.59253 -0.497717,-1.89606 h -0.485868 v 3.94619 h 0.468092 v -2.47674 l 0.159981,0.58659 0.556969,1.89015 z"
         style="font-family:'Knockout HTF47-Bantamweight';-inkscape-font-specification:'Knockout HTF47-Bantamweight';fill:#ffffff"
         id="path204" /><path
         d="m 97.572783,132.82912 -0.527344,-3.94619 h -0.56882 l -0.527344,3.94619 h 0.474017 l 0.08888,-0.76436 h 0.456241 l 0.0711,0.76436 z m -0.657699,-1.2443 h -0.343662 l 0.189607,-1.69461 z"
         style="font-family:'Knockout HTF47-Bantamweight';-inkscape-font-specification:'Knockout HTF47-Bantamweight';fill:#ffffff"
         id="path206" /><path
         d="m 99.913238,132.82912 v -3.94619 h -0.693249 l -0.27256,1.99679 -0.08888,0.78806 -0.08888,-0.78806 -0.278485,-1.99679 h -0.7051 v 3.94619 h 0.456241 v -2.99816 l 0.08295,0.79398 0.296261,2.20418 h 0.396989 l 0.314036,-2.20418 0.08888,-0.79398 v 2.99816 z"
         style="font-family:'Knockout HTF47-Bantamweight';-inkscape-font-specification:'Knockout HTF47-Bantamweight';fill:#ffffff"
         id="path208" /><path
         d="m 100.80795,132.82912 v -3.94619 h -0.52142 v 3.94619 z"
         style="font-family:'Knockout HTF47-Bantamweight';-inkscape-font-specification:'Knockout HTF47-Bantamweight';fill:#ffffff"
         id="path210" /><path
         d="m 102.44924,132.82912 v -0.4918 h -0.74658 v -1.30947 h 0.52142 v -0.46809 h -0.52142 v -1.19097 h 0.74658 v -0.48586 h -1.26207 v 3.94619 z"
         style="font-family:'Knockout HTF47-Bantamweight';-inkscape-font-specification:'Knockout HTF47-Bantamweight';fill:#ffffff"
         id="path212" /><path
         d="m 104.3216,132.82912 v -3.94619 h -0.46217 v 2.48859 l -0.14813,-0.59253 -0.49772,-1.89606 h -0.48586 v 3.94619 h 0.46809 v -2.47674 l 0.15998,0.58659 0.55697,1.89015 z"
         style="font-family:'Knockout HTF47-Bantamweight';-inkscape-font-specification:'Knockout HTF47-Bantamweight';fill:#ffffff"
         id="path214" /><path
         d="m 106.02214,129.38657 v -0.50364 h -1.48131 v 0.50364 h 0.4918 v 3.44255 h 0.51549 v -3.44255 z"
         style="font-family:'Knockout HTF47-Bantamweight';-inkscape-font-specification:'Knockout HTF47-Bantamweight';fill:#ffffff"
         id="path216" /><path
         d="m 107.71674,132.08254 v -2.45304 c 0,-0.46809 -0.31996,-0.80583 -0.76435,-0.80583 -0.44439,0 -0.76436,0.33774 -0.76436,0.80583 v 2.45304 c 0,0.47402 0.31997,0.80583 0.76436,0.80583 0.44439,0 0.76435,-0.33181 0.76435,-0.80583 z m -0.52142,0.0474 c 0,0.15406 -0.0889,0.25479 -0.24293,0.25479 -0.15406,0 -0.23701,-0.10073 -0.23701,-0.25479 v -2.54784 c 0,-0.14813 0.083,-0.25478 0.23701,-0.25478 0.15405,0 0.24293,0.10665 0.24293,0.25478 z"
         style="font-family:'Knockout HTF47-Bantamweight';-inkscape-font-specification:'Knockout HTF47-Bantamweight';fill:#ffffff"
         id="path218" /></g><g
       aria-label="lA RESERVA"
       id="text618-5"
       style="font-size:12.7px;font-family:KAVO;-inkscape-font-specification:KAVO;fill:#ffffff;stroke-width:0.264583"><path
         d="m 92.124268,102.02122 v -7.746999 h -1.905 v 9.143999 h 4.318 v -1.397 z"
         style="font-weight:bold;font-family:Eunomia;-inkscape-font-specification:'Eunomia Bold';fill:#ffffff"
         id="path171" /><path
         d="m 95.261163,103.41822 h 1.8542 v -2.1717 c 0,-0.889 0.0635,-1.714499 0.2032,-2.628899 l 0.4064,-2.6035 c 0.0127,-0.0762 0.0381,-0.1524 0.1143,-0.1524 0.0762,0 0.1016,0.0762 0.1143,0.1524 l 0.381,2.4765 c 0.1524,1.0287 0.2286,1.866899 0.2286,2.755899 v 2.1717 h 1.904997 v -2.0574 c 0,-0.8636 -0.0762,-1.917699 -0.2286,-2.692399 l -0.584197,-3.0607 c -0.1905,-1.0287 -0.635,-1.397 -1.4097,-1.397 h -0.762 c -0.762,0 -1.1811,0.3556 -1.3843,1.3589 l -0.5842,2.9718 c -0.1651,0.8509 -0.254,1.841499 -0.254,2.819399 z"
         style="font-weight:bold;font-family:Eunomia;-inkscape-font-specification:'Eunomia Bold';fill:#ffffff"
         id="path173" /><path
         d="m 106.25936,103.41822 h 1.2065 l -1.7399,-2.8702 c -0.3302,-0.5461 -0.4064,-0.723899 -0.4064,-0.901699 0,-0.1651 0.0635,-0.2921 0.3302,-0.5588 l 0.4064,-0.4191 c 0.7747,-0.8001 0.9779,-1.2446 0.9779,-2.4003 0,-1.2954 -0.4318,-1.9939 -1.8034,-1.9939 h -1.4859 v 0.9144 h 1.2446 c 0.6985,0 1.0287,0.2032 1.0287,1.2827 0,0.6858 -0.1905,1.1176 -0.5969,1.524 l -0.5842,0.5842 c -0.4191,0.4191 -0.5461,0.7112 -0.5461,1.0922 0,0.2921 0.0762,0.558799 0.3302,0.990599 z"
         style="font-family:Eunomia;-inkscape-font-specification:Eunomia;fill:#ffffff"
         id="path175" /><path
         d="m 109.51055,102.50382 v -4.470399 h 1.905 v -0.9144 h -1.905 v -1.9304 h 2.286 v -0.9144 h -3.302 v 9.143999 h 3.429 v -0.9144 z"
         style="font-family:Eunomia;-inkscape-font-specification:Eunomia;fill:#ffffff"
         id="path177" /><path
         d="m 112.97765,103.41822 h 1.1557 c 1.651,0 2.1209,-0.5969 2.1209,-2.1717 0,-1.1684 -0.1651,-1.727199 -1.2192,-2.882899 -0.6223,-0.6858 -0.9144,-0.9652 -0.9144,-2.032 0,-0.9144 0.2413,-1.143 1.016,-1.143 h 1.0922 v -0.9144 h -1.1049 c -1.3589,0 -2.0193,0.3683 -2.0193,2.0574 0,1.3589 0.3175,1.7526 1.1049,2.6416 0.9144,1.028699 1.0287,1.473199 1.0287,2.311399 0,1.0414 -0.2794,1.2192 -1.0033,1.2192 h -1.2573 z"
         style="font-family:Eunomia;-inkscape-font-specification:Eunomia;fill:#ffffff"
         id="path179" /><path
         d="m 118.70536,102.50382 v -4.470399 h 1.905 v -0.9144 h -1.905 v -1.9304 h 2.286 v -0.9144 h -3.302 v 9.143999 h 3.429 v -0.9144 z"
         style="font-family:Eunomia;-inkscape-font-specification:Eunomia;fill:#ffffff"
         id="path181" /><path
         d="m 124.58546,103.41822 h 1.2065 l -1.7399,-2.8702 c -0.3302,-0.5461 -0.4064,-0.723899 -0.4064,-0.901699 0,-0.1651 0.0635,-0.2921 0.3302,-0.5588 l 0.4064,-0.4191 c 0.7747,-0.8001 0.9779,-1.2446 0.9779,-2.4003 0,-1.2954 -0.4318,-1.9939 -1.8034,-1.9939 h -1.4859 v 0.9144 h 1.2446 c 0.6985,0 1.0287,0.2032 1.0287,1.2827 0,0.6858 -0.1905,1.1176 -0.5969,1.524 l -0.5842,0.5842 c -0.4191,0.4191 -0.5461,0.7112 -0.5461,1.0922 0,0.2921 0.0762,0.558799 0.3302,0.990599 z"
         style="font-family:Eunomia;-inkscape-font-specification:Eunomia;fill:#ffffff"
         id="path183" /><path
         d="m 130.60526,94.274221 h -0.9906 v 2.4892 c 0,0.508 -0.0508,1.3335 -0.254,2.5019 l -0.4953,2.832099 c -0.0635,0.381 -0.1143,0.4445 -0.2286,0.4445 -0.1143,0 -0.1651,-0.0635 -0.2286,-0.4445 l -0.4953,-2.832099 c -0.2032,-1.1684 -0.254,-1.9939 -0.254,-2.5019 v -2.4892 h -1.016 v 2.1717 c 0,0.7239 0.0508,1.7272 0.3048,3.0734 l 0.5207,2.806699 c 0.1524,0.8001 0.4445,1.1557 0.9652,1.1557 h 0.381 c 0.5207,0 0.8128,-0.3556 0.9652,-1.1557 l 0.5207,-2.806699 c 0.254,-1.3462 0.3048,-2.3495 0.3048,-3.0734 z"
         style="font-family:Eunomia;-inkscape-font-specification:Eunomia;fill:#ffffff"
         id="path185" /><path
         d="m 131.81175,103.41822 h 0.9906 v -2.4892 c 0,-0.508 0.0508,-1.333499 0.254,-2.501899 l 0.4953,-2.8321 c 0.0635,-0.381 0.1143,-0.4445 0.2286,-0.4445 0.1143,0 0.1651,0.0635 0.2286,0.4445 l 0.4953,2.8321 c 0.2032,1.1684 0.254,1.993899 0.254,2.501899 v 2.4892 h 1.016 v -2.1717 c 0,-0.7239 -0.0508,-1.727199 -0.3048,-3.073399 l -0.5207,-2.8067 c -0.1524,-0.8001 -0.4445,-1.1557 -0.9652,-1.1557 h -0.381 c -0.5207,0 -0.8128,0.3556 -0.9652,1.1557 l -0.5207,2.8067 c -0.254,1.3462 -0.3048,2.349499 -0.3048,3.073399 z"
         style="font-family:Eunomia;-inkscape-font-specification:Eunomia;fill:#ffffff"
         id="path187" /></g><path
       style="display:inline;fill:#ffffff;stroke-width:0.264583"
       d="m 90.909173,91.973426 v -0.66146 h 20.372917 20.37292 v 0.66146 0.66145 H 111.28209 90.909173 Z m 5.82084,-9.392714 v -2.116667 h 1.5875 1.587497 v 2.116667 2.116667 h -1.587497 -1.5875 z m 0,-9.657292 v -1.719791 h 7.540617 7.54063 v 1.719791 1.719792 h -7.54063 -7.540617 z m 17.727077,9.657292 v -2.116667 h 3.70417 3.70417 v 2.116667 2.116667 h -3.70417 -3.70417 z"
       id="path1205"
       inkscape:label="path1205"
       sodipodi:nodetypes="cccccccccccccccccccccccccccccccccccc" /></g></svg>
